<?xml version="1.0" standalone="no"?>
<!DOCTYPE svg PUBLIC "-//W3C//DTD SVG 20010904//EN"
 "http://www.w3.org/TR/2001/REC-SVG-20010904/DTD/svg10.dtd">
<svg version="1.0" xmlns="http://www.w3.org/2000/svg"
 width="159.000000pt" height="159.000000pt" viewBox="0 0 159.000000 159.000000"
 preserveAspectRatio="xMidYMid meet">
<metadata>
Created by potrace 1.11, written by Peter Selinger 2001-2013
</metadata>
<g transform="translate(0.000000,159.000000) scale(0.100000,-0.100000)"
fill="#000000" stroke="none">
<path d="M693 1546 c-102 -33 -247 -150 -474 -383 -112 -114 -142 -152 -173
-213 -77 -158 -55 -288 77 -451 23 -30 49 -74 56 -99 44 -151 210 -288 406
-336 46 -12 110 -18 185 -18 75 0 139 6 185 18 196 48 362 185 406 336 7 25
33 69 56 99 132 163 154 293 77 451 -31 61 -61 99 -173 213 -175 179 -337 319
-416 358 -73 36 -151 45 -212 25z m105 -41 c31 -22 90 -125 177 -310 57 -121
72 -162 63 -172 -8 -10 -16 -2 -34 38 -31 66 -30 77 1 19 13 -25 24 -38 24
-30 0 21 -48 109 -49 90 -1 -16 -59 88 -59 105 0 6 11 -10 24 -35 31 -58 31
-40 0 25 -13 28 -24 43 -25 35 0 -8 -14 10 -29 40 -16 30 -26 61 -23 69 3 9 1
12 -6 7 -8 -5 -10 -2 -6 9 4 9 2 15 -3 13 -5 -2 -23 13 -39 32 -19 24 -21 29
-6 16 33 -29 26 -4 -8 29 l-30 29 -30 -29 c-34 -33 -41 -58 -8 -29 15 13 13 8
-6 -16 -16 -19 -34 -34 -39 -32 -5 2 -7 -4 -3 -13 4 -11 2 -14 -6 -9 -7 5 -9
2 -6 -7 3 -8 -7 -39 -23 -69 -15 -30 -29 -48 -29 -40 -1 8 -12 -7 -25 -35 -31
-65 -31 -83 0 -25 13 25 24 41 24 35 0 -17 -58 -121 -59 -105 -1 19 -49 -69
-49 -90 0 -8 11 5 24 30 31 58 32 47 1 -19 -18 -40 -26 -48 -34 -38 -9 10 6
51 63 172 108 228 169 325 205 325 3 0 15 -7 28 -15z m-154 -51 c-10 -16 -43
-46 -73 -66 -63 -41 -363 -318 -427 -395 -23 -27 -51 -65 -63 -84 -33 -53 -25
-20 9 39 19 32 35 50 42 46 7 -5 8 -3 3 6 -9 14 228 257 360 369 75 64 156
122 163 116 1 -1 -5 -15 -14 -31z m401 -85 c132 -112 369 -355 360 -369 -5 -9
-4 -11 3 -6 7 4 23 -14 42 -46 34 -59 42 -92 9 -39 -12 19 -40 57 -63 84 -65
78 -364 354 -427 395 -49 32 -66 50 -87 95 -8 18 86 -48 163 -114z m-592 -359
c18 -14 27 -32 29 -58 2 -26 8 -38 21 -40 13 -3 17 3 17 28 0 27 6 33 43 49
126 54 288 54 414 0 37 -16 43 -22 43 -49 0 -25 4 -31 18 -28 12 2 18 14 20
40 4 51 39 78 101 78 55 0 82 -17 105 -64 31 -65 17 -108 -45 -140 -28 -14
-26 -30 2 -36 15 -4 35 -28 60 -74 138 -254 17 -500 -296 -603 -71 -23 -96
-26 -215 -26 -119 0 -144 3 -215 26 -104 34 -188 85 -249 150 -88 93 -120 197
-96 320 15 81 77 199 109 207 28 6 30 22 2 36 -40 20 -61 47 -61 77 0 37 27
94 54 112 31 22 108 19 139 -5z"/>
<path d="M695 1429 c-4 -6 -5 -12 -2 -15 2 -3 7 2 10 11 7 17 1 20 -8 4z"/>
<path d="M836 1427 c3 -10 9 -15 12 -12 3 3 0 11 -7 18 -10 9 -11 8 -5 -6z"/>
<path d="M640 1329 c-12 -23 -20 -43 -18 -45 3 -2 14 17 26 41 27 56 20 60 -8
4z"/>
<path d="M892 1325 c12 -24 23 -43 26 -41 4 5 -36 86 -43 86 -3 0 5 -20 17
-45z"/>
<path d="M592 1435 c-58 -40 -224 -191 -337 -306 -104 -106 -101 -104 45 34
139 131 219 200 306 263 40 30 27 38 -14 9z"/>
<path d="M910 1451 c0 -5 29 -30 64 -55 64 -45 148 -121 326 -290 l95 -91 -90
94 c-163 169 -395 370 -395 342z"/>
<path d="M440 663 c-31 -11 -70 -58 -76 -90 -4 -23 0 -45 14 -73 11 -23 18
-49 15 -59 -2 -9 3 -23 11 -30 11 -9 16 -30 16 -62 0 -43 3 -49 21 -49 11 0
33 8 47 19 30 20 102 18 102 -3 0 -19 51 -62 89 -75 44 -14 138 -14 182 0 37
13 89 56 89 75 0 6 16 14 36 17 28 5 44 1 71 -18 48 -32 63 -24 63 35 0 31 5
52 16 61 8 7 13 21 11 31 -3 10 4 34 14 55 25 49 24 73 -4 114 -41 62 -100 75
-158 36 -65 -43 -69 -126 -8 -180 26 -24 38 -28 75 -25 24 2 44 0 44 -4 0 -4
-18 -20 -41 -35 -33 -22 -56 -28 -133 -33 -51 -4 -109 -13 -128 -19 -28 -9
-47 -8 -94 4 -32 8 -84 15 -116 15 -60 0 -118 18 -150 47 -27 24 -22 28 26 25
37 -3 49 1 75 25 17 15 35 42 40 58 23 84 -67 168 -149 138z m587 -87 c-4 -9
-11 -16 -17 -16 -17 0 -24 31 -9 41 18 11 34 -5 26 -25z m-579 7 c-2 -10 -10
-18 -18 -18 -8 0 -16 8 -18 18 -2 12 3 17 18 17 15 0 20 -5 18 -17z"/>
<path d="M704 439 c-3 -6 3 -21 15 -32 16 -16 23 -19 33 -9 9 9 7 16 -7 32
-20 23 -31 25 -41 9z"/>
<path d="M795 430 c-14 -16 -16 -23 -7 -32 10 -10 17 -7 33 9 12 11 18 26 15
32 -10 16 -21 14 -41 -9z"/>
</g>
</svg>
